<svg id="effect" height="512" viewBox="0 0 36 36" width="512" xmlns="http://www.w3.org/2000/svg"><path d="m8.377 4.167c6.917 0 11.667-3.583 15-3.583s10.333 1.916 10.333 17.249-9.417 17.583-13.083 17.583c-17.167.001-24.5-31.249-12.25-31.249z" fill="#efefef"/><path d="m23.5 17.5v.38c0 .38-.21.73-.55.9l-2.57 1.28c-.49.24-.69.83-.46 1.33l2.44 5.09c-2.34 1.96-4.36 3.02-4.36 3.02s-2.71-1.42-5.49-4.02l.15-.25c1.2-2.12 1.84-4.51 1.84-6.95v-1.78c0-1.1.9-2 2-2h2c.63 0 1.22.3 1.6.8l.3.4c.38.5.97.8 1.6.8h.5c.55 0 1 .45 1 1z" fill="#2fdf84"/><path d="m29.5 13.58c0 5.74-3.89 10.19-7.14 12.9l-2.44-5.09c-.23-.5-.03-1.09.46-1.33l2.57-1.28c.34-.17.55-.52.55-.9v-.38c0-.55-.45-1-1-1h-.5c-.63 0-1.22-.3-1.6-.8l-.3-.4c-.38-.5-.97-.8-1.6-.8h-2c-1.1 0-2 .9-2 2v1.78c0 2.44-.64 4.83-1.84 6.95l-.15.25c-2.96-2.75-6.01-6.82-6.01-11.9 0-3.35 2.72-6.08 6.06-6.08 2.38 0 4.45 1.26 5.44 3.3.99-2.04 3.06-3.3 5.44-3.3 3.34 0 6.06 2.73 6.06 6.08z" fill="#f3f3f1"/><path d="m17.5 14.5-.5 5.55c-.03.25-.24.45-.5.45-.2 0-.37-.12-.45-.28l-1.55-3.22v-.5c0-1.1.9-2 2-2z" fill="#2fdf84"/><path d="m8.5 13.58c0 4.32 2.21 7.92 4.69 10.58-.15.36-.33.72-.53 1.07l-.15.25c-2.96-2.75-6.01-6.82-6.01-11.9 0-3.35 2.72-6.08 6.06-6.08.35 0 .69.03 1.02.08-2.88.47-5.08 2.98-5.08 6z" fill="#d5dbe1"/><path d="m19 28.91c-.62.39-1 .59-1 .59s-2.71-1.42-5.49-4.02l.15-.25c1.2-2.12 1.84-4.51 1.84-6.95v-1.78c0-1.1.9-2 2-2h2c-1.1 0-2 .9-2 2v1.78c0 2.44-.64 4.83-1.84 6.95l-.15.25c1.74 1.62 3.45 2.79 4.49 3.43z" fill="#00b871"/><path d="m16.5 16.5v.5l.65 1.36-.15 1.69c-.03.25-.24.45-.5.45-.2 0-.37-.12-.45-.28l-1.55-3.22v-.5c0-1.1.9-2 2-2h1l-.03.28c-.58.36-.97 1-.97 1.72z" fill="#00b871"/><path d="m21.573 26.573-2.326-4.863c-.409-.855-.052-1.896.797-2.32l2.568-1.284c.085-.042.138-.128.138-.224v-.382c0-.138-.112-.25-.25-.25h-.5c-.861 0-1.684-.411-2.2-1.1l-.3-.399c-.234-.314-.608-.5-1-.5h-2c-.689 0-1.25.561-1.25 1.25v1.782c0 2.563-.672 5.093-1.943 7.318l-.155.271-1.303-.744.155-.271c1.143-1.999 1.746-4.272 1.746-6.574v-1.783c0-1.517 1.233-2.75 2.75-2.75h2c.861 0 1.684.411 2.2 1.1l.3.4c.234.314.608.5 1 .5h.5c.965 0 1.75.785 1.75 1.75v.382c0 .667-.371 1.267-.968 1.565l-2.568 1.284c-.121.061-.172.209-.113.332l2.326 4.863z"/><path d="m16.5 21.25c-.478 0-.919-.277-1.127-.707l-1.549-3.218 1.352-.65 1.157 2.402.42-4.645 1.494.135-.502 5.546c-.059.649-.595 1.137-1.245 1.137z"/><path d="m18 30.25c-.12 0-.24-.028-.35-.086-.485-.256-11.9-6.378-11.9-16.581 0-3.768 3.054-6.833 6.807-6.833 2.206 0 4.194.98 5.443 2.623 1.249-1.643 3.237-2.623 5.443-2.623 3.753 0 6.807 3.065 6.807 6.833 0 10.203-11.415 16.325-11.9 16.581-.11.058-.23.086-.35.086zm-5.443-22c-2.926 0-5.307 2.393-5.307 5.333 0 8.358 8.863 13.96 10.75 15.057 1.885-1.099 10.75-6.711 10.75-15.057 0-2.94-2.381-5.333-5.307-5.333-2.082 0-3.909 1.102-4.769 2.876-.25.518-1.1.518-1.35 0-.858-1.774-2.685-2.876-4.767-2.876z"/><g fill="#a4afc1"><path d="m7.707 4.305h2v1h-2z" transform="matrix(.707 -.707 .707 .707 -.848 7.564)"/><path d="m3.642 8.371h2v1h-2z" transform="matrix(.707 -.707 .707 .707 -4.914 5.881)"/><path d="m4.142 3.629h1v2h-1z" transform="matrix(.707 -.707 .707 .707 -1.914 4.637)"/></g></svg>